<svg xmlns="http://www.w3.org/2000/svg" width="22.13" height="17.44" viewBox="0 0 22.13 17.44">
  <g id="Group_41" data-name="Group 41" transform="translate(-116 -567.892)">
    <path id="Path_18" data-name="Path 18" d="M11.067,54.366a8.716,8.716,0,1,0,0,16.785,8.715,8.715,0,1,0,0-16.785ZM1.3,62.759a7.421,7.421,0,0,1,7.535-7.411,8.709,8.709,0,0,0,0,14.823A7.421,7.421,0,0,1,1.3,62.759Zm12.114,7.413a7.413,7.413,0,1,1,7.413-7.413A7.421,7.421,0,0,1,13.415,70.172Z" transform="translate(116 513.853)" fill="#bcbcbc"/>
    <path id="Path_19" data-name="Path 19" d="M238.87,135.392h-1.845a1.006,1.006,0,0,1,0-2.012h1.781a1.411,1.411,0,0,1,1.007.455.651.651,0,0,0,.95-.89,2.742,2.742,0,0,0-2.164-.866v-.78a.651.651,0,1,0-1.3,0v.78a2.316,2.316,0,1,0-.272,4.616h1.845a1.006,1.006,0,0,1,0,2.012h-1.942a1.4,1.4,0,0,1-.784-.264.651.651,0,0,0-.742,1.07,2.892,2.892,0,0,0,1.894.5v.78a.651.651,0,0,0,1.3,0v-.78a2.316,2.316,0,1,0,.272-4.616Z" transform="translate(-108.532 440.572)" fill="#bcbcbc"/>
  </g>
</svg>
