<svg id="图层_1" data-name="图层 1" xmlns="http://www.w3.org/2000/svg" xmlns:xlink="http://www.w3.org/1999/xlink" viewBox="0 0 200 200"><defs><style>.cls-1{fill:url(#未命名漸層_33);}.cls-2{fill:#fff;}.cls-3{fill:#ff6482;}</style><linearGradient id="未命名漸層_33" x2="200" y2="200" gradientUnits="userSpaceOnUse"><stop offset="0" stop-color="#08befe"/><stop offset="0.13" stop-color="#08b2fe"/><stop offset="0.4" stop-color="#08a0fe"/><stop offset="0.68" stop-color="#0895fe"/><stop offset="1" stop-color="#0892fe"/></linearGradient></defs><title>nidin_baby</title><rect class="cls-1" width="200" height="200"/><path class="cls-2" d="M67.69,122.56a10.7,10.7,0,0,1-2.4,2.7,1.79,1.79,0,0,1-2.78-2.06l.06-.16c.26-.67.54-1.28.8-1.92.12-.32.27-.62.37-.95s.25-.63.36-1a22.43,22.43,0,0,0,1.12-4,19.8,19.8,0,0,0,.31-4.13,16,16,0,0,0-.62-4A16.49,16.49,0,0,0,54.06,96a16.55,16.55,0,0,0-8-.48,16.28,16.28,0,0,0-7.25,3.35A16.49,16.49,0,0,0,34,105.22a16.85,16.85,0,0,0-1.09,3.87,17,17,0,0,0-.18,2l0,1.1v1.17s0,.08,0,.11v.09c0,.11,0,.37,0,.57v.65c0,.44,0,.89,0,1.33,0,.9.14,1.8.27,2.7A36.19,36.19,0,0,0,38.78,134a42.34,42.34,0,0,0,16.68,14.08A75.64,75.64,0,0,0,77,154.59c3.76.6,7.57,1,11.39,1.23q1.43.1,2.87.15c1,0,1.92.08,2.88.09,1.91.06,3.81,0,5.81,0s3.9,0,5.81,0c1,0,1.92,0,2.88-.09s1.92-.08,2.87-.15c3.83-.23,7.63-.63,11.39-1.23a75.64,75.64,0,0,0,21.59-6.52A42.34,42.34,0,0,0,161.22,134,36.19,36.19,0,0,0,167,118.81c.12-.9.22-1.8.27-2.7,0-.45,0-.89,0-1.33v-.65c0-.2,0-.45,0-.57v-.08s0-.08,0-.12v-1.17l0-1.1a17,17,0,0,0-.18-2,16.85,16.85,0,0,0-1.09-3.87,16.49,16.49,0,0,0-4.81-6.38,16.28,16.28,0,0,0-7.25-3.35,16.38,16.38,0,0,0-14.82,4.69,16.36,16.36,0,0,0-4,6.94,16,16,0,0,0-.62,4,19.81,19.81,0,0,0,.31,4.13,22.43,22.43,0,0,0,1.12,4c.11.32.23.64.36,1s.25.63.37.95c.25.63.54,1.25.8,1.92l.06.16a1.79,1.79,0,0,1-2.78,2.07,10.69,10.69,0,0,1-2.39-2.68,64.37,64.37,0,0,1-64.64,0ZM48.23,120a9.11,9.11,0,1,1,9.11-9.11A9.11,9.11,0,0,1,48.23,120Zm103.54-18.22a9.11,9.11,0,1,1-9.11,9.11A9.11,9.11,0,0,1,151.77,101.74Z"/><circle class="cls-3" cx="151.77" cy="110.85" r="9.11"/><circle class="cls-3" cx="48.23" cy="110.85" r="9.11"/><path d="M27.54,113.11v0Z"/><path d="M172.47,113.31v0Z"/><polygon points="99.92 158.34 99.92 158.34 99.92 158.34 99.92 158.34"/><path class="cls-2" d="M124.66,51.75a2.42,2.42,0,0,1-1.15-3.08v0c0-.31-.05-.85-.06-1.07s0-.57-.06-.85a12.36,12.36,0,0,0-.85-3.28,11.43,11.43,0,0,0-7.43-6.69,15,15,0,0,0-1.71-.36c-.59-.08-1.15-.12-1.79-.15a12.44,12.44,0,0,0-3.55.26,11.18,11.18,0,0,0-3.31,1.5h0a1.07,1.07,0,0,1-1.34-1.66A12.17,12.17,0,0,1,106.48,34a7.27,7.27,0,0,0-2.06-2.33,8.51,8.51,0,0,0-3.82-1.33,14.25,14.25,0,0,0-8.65,1.75,11.71,11.71,0,0,0-5.51,6.66,12.65,12.65,0,0,0-.52,4.43,8.55,8.55,0,0,0,.27,2.05A5.06,5.06,0,0,0,87.11,47v0a1.31,1.31,0,0,1,.15.25l-2.75.93-.53.16C63.94,54.18,49.72,70.51,47.27,90.26a21.31,21.31,0,0,1,17.17,6.47,21.3,21.3,0,0,1,5.2,9,20.85,20.85,0,0,1,.79,5.19,24.66,24.66,0,0,1-.4,5.15c-.12.63-.27,1.27-.43,1.89a59.39,59.39,0,0,0,60.84,0c-.17-.63-.32-1.27-.44-1.91a24.66,24.66,0,0,1-.4-5.15,20.85,20.85,0,0,1,.79-5.19A21.45,21.45,0,0,1,144.43,91.2a21.59,21.59,0,0,1,8.24-.95C150.55,73.81,140.24,59.55,124.66,51.75ZM79,101c-2.93,0-5.31-3.19-5.31-7.14s2.38-7.14,5.31-7.14,5.31,3.19,5.31,7.14S82,101,79,101ZM108,112a2.18,2.18,0,0,1-2.9-1c0-.07-2.12-4.24-5.07-4.33-2.95.09-5.05,4.28-5.07,4.33a2.18,2.18,0,0,1-4-1.86c.13-.27,3.23-6.73,9-6.83H100c5.75.1,8.85,6.56,9,6.83A2.18,2.18,0,0,1,108,112Zm13-11c-2.93,0-5.31-3.19-5.31-7.14S118,86.69,121,86.69s5.31,3.19,5.31,7.14S123.89,101,121,101Z"/></svg>