<svg id="图层_1" data-name="图层 1" xmlns="http://www.w3.org/2000/svg" xmlns:xlink="http://www.w3.org/1999/xlink" viewBox="0 0 60 60"><defs><style>.cls-1{fill:none;clip-rule:evenodd;}.cls-2{clip-path:url(#clip-path);}.cls-3{fill:#3e82f1;}.cls-4{clip-path:url(#clip-path-2);}.cls-5{fill:#32a753;}.cls-6{clip-path:url(#clip-path-3);}.cls-7{fill:#f9bb00;}.cls-8{clip-path:url(#clip-path-4);}.cls-9{fill:#e74133;}</style><clipPath id="clip-path"><path class="cls-1" d="M60,30.7a35.17,35.17,0,0,0-.56-6.26H30.61V36.28H47.09A14.08,14.08,0,0,1,41,45.51V53.2h9.89C56.66,47.87,60,40,60,30.7Zm0,0"/></clipPath><clipPath id="clip-path-2"><path class="cls-1" d="M30.61,60.61c8.27,0,15.19-2.74,20.26-7.42L41,45.51a18.47,18.47,0,0,1-27.5-9.7H3.26v7.93A30.6,30.6,0,0,0,30.61,60.61Zm0,0"/></clipPath><clipPath id="clip-path-3"><path class="cls-1" d="M13.48,35.82a18.1,18.1,0,0,1,0-11.63V16.25H3.26a30.65,30.65,0,0,0,0,27.5l10.23-7.93Zm0,0"/></clipPath><clipPath id="clip-path-4"><path class="cls-1" d="M30.61,11.56a16.54,16.54,0,0,1,11.7,4.58l8.78-8.78a29.42,29.42,0,0,0-20.48-8A30.6,30.6,0,0,0,3.26,16.25l10.23,7.93A18.24,18.24,0,0,1,30.61,11.56Zm0,0"/></clipPath></defs><title>login</title><g class="cls-2"><rect id="_路径_" data-name="&lt;路径&gt;" class="cls-3" x="13.61" y="7.43" width="63.4" height="62.78"/></g><g class="cls-4"><rect id="_路径_2" data-name="&lt;路径&gt;" class="cls-5" x="-13.75" y="18.81" width="81.63" height="58.81"/></g><g class="cls-6"><rect id="_路径_3" data-name="&lt;路径&gt;" class="cls-7" x="-17.01" y="-0.75" width="47.5" height="61.51"/></g><g class="cls-8"><rect id="_路径_4" data-name="&lt;路径&gt;" class="cls-9" x="-13.75" y="-17.62" width="81.85" height="58.81"/></g></svg>