<svg id="coupon" xmlns="http://www.w3.org/2000/svg" width="22.13" height="17.482" viewBox="0 0 22.13 17.482">
  <path id="Path_20" data-name="Path 20" d="M20.055,76.893H2.075A2.134,2.134,0,0,1,0,74.708V71.066a.71.71,0,0,1,.692-.728,2.188,2.188,0,0,0,0-4.371A.71.71,0,0,1,0,65.238V61.6a2.134,2.134,0,0,1,2.075-2.185h17.98A2.134,2.134,0,0,1,22.13,61.6v3.642a.71.71,0,0,1-.692.728,2.188,2.188,0,0,0,0,4.371.71.71,0,0,1,.692.728v3.642a2.135,2.135,0,0,1-2.075,2.185ZM1.383,71.721v2.987a.711.711,0,0,0,.692.728h17.98a.711.711,0,0,0,.692-.728V71.721a3.685,3.685,0,0,1,0-7.138V61.6a.711.711,0,0,0-.692-.728H2.075a.711.711,0,0,0-.692.728v2.987a3.685,3.685,0,0,1,0,7.138Z" transform="translate(0 -59.411)" fill="#bcbcbc"/>
  <path id="Path_21" data-name="Path 21" d="M.035.3,12.646,0l-.035,1.4L0,1.694Z" transform="translate(8.052 14.355) rotate(-69.444)" fill="#bcbcbc"/>
  <path id="path-1_20_" d="M120.9,152.678a2.075,2.075,0,1,1,2.075-2.075A2.077,2.077,0,0,1,120.9,152.678Zm0-2.766a.692.692,0,1,0,.692.692A.692.692,0,0,0,120.9,149.912Z" transform="translate(-113.104 -143.835)" fill="#bcbcbc"/>
  <path id="path-1_19_" d="M269.427,241.8a2.075,2.075,0,1,1,2.075-2.075A2.077,2.077,0,0,1,269.427,241.8Zm0-2.766a.692.692,0,1,0,.692.692A.692.692,0,0,0,269.427,239.029Z" transform="translate(-254.485 -228.358)" fill="#bcbcbc"/>
</svg>
