<?xml version="1.0" encoding="utf-8"?>
<!-- Generator: Adobe Illustrator 21.0.0, SVG Export Plug-In . SVG Version: 6.00 Build 0)  -->
<svg version="1.1" id="圖層_1" xmlns="http://www.w3.org/2000/svg" xmlns:xlink="http://www.w3.org/1999/xlink" x="0px" y="0px"
	 viewBox="0 0 44.2 44.2" style="enable-background:new 0 0 44.2 44.2;" xml:space="preserve">
<title>i</title>
<g>
	<path d="M11.8,15.4h-0.5v2.4h0.5c0.5,0,0.9-0.1,1.1-0.3c0.2-0.2,0.3-0.5,0.3-0.9c0-0.4-0.1-0.7-0.4-0.9
		C12.7,15.5,12.3,15.4,11.8,15.4z"/>
	<path d="M38.1,14.1h-6V6H4c-2.2,0-4,1.8-4,4v22.1h4c0,3.3,2.7,6,6,6s6-2.7,6-6h12c0,3.3,2.7,6,6,6c3.3,0,6-2.7,6-6h4v-10L38.1,14.1
		z M4.6,19.2v3.5H2.8v-8.7h5v1.5H4.6v2.3h3v1.5H4.6z M10,35.1c-1.7,0-3-1.3-3-3s1.3-3,3-3s3,1.3,3,3S11.7,35.1,10,35.1z M14,22.6
		l-1.9-3.4h-0.8v3.4H9.5v-8.7h2.4c1.1,0,1.9,0.2,2.5,0.6c0.5,0.4,0.8,1.1,0.8,2c0,0.3,0,0.6-0.1,0.8c-0.1,0.2-0.2,0.5-0.3,0.6
		c-0.1,0.2-0.3,0.4-0.5,0.5c-0.2,0.1-0.4,0.3-0.5,0.4c0.4,0.7,0.8,1.3,1.2,1.9c0.2,0.2,0.3,0.5,0.4,0.7c0.1,0.2,0.3,0.4,0.4,0.6
		c0.1,0.2,0.2,0.3,0.3,0.4l0.1,0.2H14z M22.2,15.4H19v1.9h3v1.5h-3v2.3h3.2v1.5h-5v-8.7h5V15.4z M29.1,15.4h-3.2v1.9h3v1.5h-3v2.3
		h3.2v1.5h-5v-8.7h5V15.4z M34.1,35.1c-1.7,0-3-1.3-3-3s1.3-3,3-3c1.7,0,3,1.3,3,3S35.8,35.1,34.1,35.1z M32.1,22.1v-5h5l3.9,5H32.1
		z"/>
</g>
</svg>
