<svg id="图层_1" data-name="图层 1" xmlns="http://www.w3.org/2000/svg" xmlns:xlink="http://www.w3.org/1999/xlink" viewBox="0 0 297.74 348.72"><defs><style>.cls-1{fill:none;}.cls-2{clip-path:url(#clip-path);}.cls-3{fill:#ff6482;}.cls-4{fill:#fff;}.cls-5{fill:#0098ff;}</style><clipPath id="clip-path"><rect class="cls-1" x="32.55" y="204.76" width="265.19" height="143.96"/></clipPath></defs><title>din_baby_thumb</title><g class="cls-2"><path class="cls-3" d="M87.3,399.27s11.94-8.79,19.71-6,26.31,5.06,26.31,5.06,42.74-.1,59.12-7.11,60-7.37,60-7.37l-18.3-67.46L195.06,286.6l-94.72,14S80.22,400.5,87.3,399.27Z"/><path class="cls-4" d="M270.62,269.61l-8.25-6.94-6.63.55-14.84,7.07L217.1,272.6l-16-9.7s-81,13.89-89.55,9.32c0,0-56.73,52.9-42.3,69.79,6.14,7.18,16.25-5.58,16.25-5.58s.29,6.29,4.76,6.76,17.94-19.27,17.94-19.27-4.33,29.72,19.87,42.66l6.18,37.27-6.31,14.92,5.42,2.24,23-9.38-.93-42.54,23.66-2.3s3.38,40,5.67,41.55,28.83,8.58,28.78,4-10.2-13.8-10.2-13.8,4.25-31.83-1.23-39.28c0,0,21.43-16.21,13-42.29l-1.3-11.27L231.2,304l22.28-4.53,14.14,1,7.58-11.31,1.07-14.94Z"/><path class="cls-3" d="M119,273.83l76.16-8.58A9.41,9.41,0,0,1,193,275.1c-4.38,4.32-23.06,12.21-31.86,12.88S119.61,288.08,119,273.83Z"/><path d="M168.36,374l-.52.05-1,.09c-12.84,1.25-51.74,5.05-60.35-28.15-8-30.67,9-74.17,9.75-76l9.27,3.66c-.17.42-16.5,42.33-9.37,69.84,5.73,22.08,29.52,22.69,49.64,20.74h.09l.48,0,.48,0H167c20.12-2,43.35-7.14,44.72-29.91,1.71-28.42-22.4-66.35-22.64-66.73l8.39-5.38c1.07,1.66,26.1,41.08,24.2,72.71C219.61,368.57,181.66,372.68,168.36,374Z"/><path d="M159.38,292.66c-20.64,2-38.71-3.62-43.94-13.69l7.95-4.13c3,5.77,17,10.67,35.13,8.91,18.47-1.8,31.19-9.39,32.8-15.7l8.67,2.22C197.14,281.4,180.44,290.61,159.38,292.66Z"/><path d="M92.24,347.52a6.49,6.49,0,0,1-1.08,0,9.79,9.79,0,0,1-7.43-4c-4.56,3-11.44,6.1-17.06,2.16-3.75-2.63-10.48-11.74,8-39.43C84.2,292,105.08,269.59,106,268.64a4.48,4.48,0,1,1,6.54,6.11c-.21.23-21.28,22.83-30.39,36.47-11,16.44-11.83,26.07-10.31,27.13,1.67,1.17,7.06-1.81,10.59-5.16a4.48,4.48,0,0,1,7.53,2.68h0s.38,2.08,1.35,2.6c2.61-1.65,9-10,14.2-18.7a4.48,4.48,0,0,1,7.68,4.61C101,344.64,94.94,347.26,92.24,347.52Zm-1.33-8.84Z"/><path d="M130.34,402.66a38.64,38.64,0,0,1-19.88-3.83c-5-2.35-12,1.25-16.69,3.63-3.8,1.95-6.31,3.23-9,2.06a5.07,5.07,0,0,1-2.85-3.28c-1.4-4.88,3.74-46.84,9.79-62.4a4.45,4.45,0,0,1,8.3,3.23c-4.61,11.84-8.41,40-9.3,52,5.9-3,15.09-7.25,23.57-3.26,9,4.23,16,2.93,16,2.92a4.45,4.45,0,0,1,1.83,8.71A17.14,17.14,0,0,1,130.34,402.66Z"/><path class="cls-5" d="M188.63,293.62l-12.5,1a6.47,6.47,0,0,0-6.41,6.52l.45,11.65-7.07-13.7a7.65,7.65,0,0,0-5-3.34c-10.07-1.14-23.6,2.43-24.41,8.81l-3.38,39.66c-.2,3.39,1.86,6.78,5.25,7,0,0,8.74-.86,12.46-1.26s3.86-3.29,4.05-6.68l.19-10.51L158,346.43c1.31,2.41,4,3.27,6.58,3,0,0,19.88-2.29,23.87-2.74s6.44-3,6.41-6.52l-.35-39.26C194.48,297.36,192.2,293.59,188.63,293.62Z"/><path class="cls-4" d="M164.8,351.33c-3.75.37-6.9-1.13-8.45-4l-.08-.16-2.34-5.52,0,1.81c-.19,3.28-.46,7.78-5.73,8.36-3.72.4-12.48,1.27-12.48,1.27h-.3c-4.7-.28-7.26-4.78-7-9l3.39-39.71c1-8.17,16.38-11.67,26.5-10.52a9.48,9.48,0,0,1,6.49,4.32l3.2,6.2-.12-3.18a8.35,8.35,0,0,1,8.2-8.48l12.58-1a7,7,0,0,1,5.8,3.07,10.65,10.65,0,0,1,2,6.1l.35,39.26c0,4.56-3.13,7.86-8.08,8.41C184.67,349,164.8,351.33,164.8,351.33Zm-5.1-5.72c1.21,2.13,3.9,2,4.7,2,0,0,19.85-2.29,23.84-2.73,3-.34,4.76-2,4.73-4.63l-.35-39.26a6.91,6.91,0,0,0-1.24-3.9,3.41,3.41,0,0,0-2.67-1.53l-12.56,1a4.58,4.58,0,0,0-4.54,4.62l.78,20.06-11-21.23a5.92,5.92,0,0,0-3.59-2.33c-10.07-1.14-21.75,2.61-22.33,7.17l-3.38,39.59c-.13,2.2,1.11,4.7,3.35,4.93,1.22-.12,8.87-.88,12.28-1.25,1.81-.2,2.14-.87,2.37-4.83l.34-19.38Z"/><path d="M209.66,394.95a17.07,17.07,0,0,1-1.8.1,4.45,4.45,0,0,1,.12-8.9c.19,0,7.24-.12,15.18-6,7.43-5.46,17.08-3.21,23.45-1.42-4.63-15.29-19.05-57.43-26-71.66a4.45,4.45,0,1,1,8-3.91c7.3,14.9,28.75,76.24,28.34,81a5.07,5.07,0,0,1-2.17,3.76c-2.43,1.68-5.15.9-9.25-.28-5-1.44-12.62-3.62-17.07-.35A38.64,38.64,0,0,1,209.66,394.95Z"/><path d="M279.24,265.32a9.61,9.61,0,0,0-7.14-3.5,17.36,17.36,0,0,0-2.31.12,9.46,9.46,0,0,0-1.14-2.64c-2.84-4.46-8.71-2.38-17.64.8-5.54,2-12.45,4.43-19.37,5.48-14.94,2.25-30.51-5.39-30.67-5.47a3.3,3.3,0,0,0-3,5.91c.71.35,17.59,8.65,34.6,6.09,7.59-1.15,14.83-3.73,20.68-5.81,3.14-1.12,8.23-3,10-3a5.1,5.1,0,0,1-.23,3.77c-1,2.28-6.44,4.8-10.62,5.53a3.3,3.3,0,1,0,1.14,6.51c.39-.07,2.45-.51,3.69-.78-.09.67-.17,1.31-.24,1.9l0,.4c-.58,5-1.12,9.68.17,13.58-8.87,4-34.32,5.5-43.56,5.77a4,4,0,0,0-3.87,4.11,4,4,0,0,0,4.11,3.88c2.19-.06,10.61-.35,20.06-1.27,4.52-.44,9.27-1,13.69-1.79,6.94-1.21,11.93-2.7,14.86-4.43l.11-.07a14.64,14.64,0,0,0,5.54,1.3,9.94,9.94,0,0,0,2.23-.13c6.5-1.14,11.82-8.66,12.93-18.3C284.13,275.91,282.62,269.19,279.24,265.32Zm-10.72,28.44c-1.62-.08-2.76-.45-3.27-1.06-1.4-1.66-.82-6.68-.31-11.1l0-.41a47.26,47.26,0,0,1,1-6,3.91,3.91,0,0,0,.11-1.09,13.73,13.73,0,0,0,2.78-3.74,6.82,6.82,0,0,1,3-.5c.19,0,.65,0,1.3.76,1.53,1.76,2.78,6.09,2.12,11.81h0C274.5,289.61,270.8,293.89,268.53,293.76Z"/></g><path class="cls-4" d="M290.86,164.13l-.38-3.51a38.82,38.82,0,0,0-33.8-34.76l-.09-1h0v0h0c-6.59-38-33.5-68.38-68.93-82l-.15-.11c-.2-1.3-.42-2.7-.48-3.31A27.58,27.58,0,0,0,156.9,14.63a37.4,37.4,0,0,0-5.3.86L150,14.1c-4.46-7.61-11.39-10.7-21.08-9.76C112,6,97.68,20.39,101.67,39.09a17.54,17.54,0,0,0,.81,2.74l-2.21,2.07C57.48,61,29.37,101.65,30.64,147.42l-.25.77A38.83,38.83,0,0,0,5.27,188.34l.31,3.52s.9,94,147.7,78.62h0l3.69-.39.19,0h0L158,270C308.31,257.78,290.86,164.13,290.86,164.13Z"/><path d="M36.23,150.69l-10,.14-.07-5c-.67-46.63,28-88.4,72.94-106.41l4.63-1.85,3.71,9.25-4.63,1.85c-41.11,16.47-67.28,54.55-66.68,97Z"/><path d="M257.78,130a5,5,0,0,1-5.39-4.11c-6.15-35.54-30.78-64.81-65.88-78.3a5,5,0,1,1,3.58-9.3c37.83,14.54,65.47,47.46,72.13,85.91a5,5,0,0,1-4.06,5.76Z"/><path d="M105.68,49.54A13.25,13.25,0,0,1,101,45a17.86,17.86,0,0,1-2.29-5.87,30.44,30.44,0,0,1,4.09-23.06A33.42,33.42,0,0,1,111,7.31,37.11,37.11,0,0,1,133.25,0a25.32,25.32,0,0,1,12.26,3,24.13,24.13,0,0,1,9,9.07,4.4,4.4,0,0,1-7.57,4.48l0,0a16,16,0,0,0-5.67-5.83,17.45,17.45,0,0,0-8.06-2A29.23,29.23,0,0,0,115.84,14a24,24,0,0,0-9.92,14.69,25.94,25.94,0,0,0-.18,9.14,17.53,17.53,0,0,0,1,4.13,10.37,10.37,0,0,0,2.21,3.37l0,0a2.69,2.69,0,0,1-3.28,4.2Z"/><path d="M140,20.42A24,24,0,0,1,147,14.3a29.19,29.19,0,0,1,8.89-3,29.59,29.59,0,0,1,4.64-.49,30.7,30.7,0,0,1,4.76.29,31.86,31.86,0,0,1,23.1,15.67,30.36,30.36,0,0,1,3.35,9.08c.14.8.29,1.59.36,2.4l.2,2a6.44,6.44,0,0,1-.74,4.49,3.66,3.66,0,0,1-5.44,1.09l-.63-.5a5.48,5.48,0,0,1-1.92-3.78c-.13-.63-.27-1.72-.34-2.17s-.2-1.15-.3-1.73a25.34,25.34,0,0,0-2.39-6.53A23.43,23.43,0,0,0,164,18.93a30.69,30.69,0,0,0-3.56-.39c-1.21,0-2.36,0-3.69.05a25.52,25.52,0,0,0-7.2,1.23,22.94,22.94,0,0,0-6.45,3.72h0A2.2,2.2,0,0,1,140,20.42Z"/><path d="M152,214.8c-25,2.43-50.12-2.13-70.72-12.85a5,5,0,1,1,4.6-8.84c18.91,9.84,42.05,14,65.16,11.77s44.95-10.78,61.6-24a5,5,0,0,1,6.21,7.8C200.7,203.08,177,212.37,152,214.8Z"/><ellipse cx="101.75" cy="142.54" rx="10.89" ry="14.63" transform="translate(-13.31 10.51) rotate(-5.55)"/><ellipse cx="187.31" cy="134.22" rx="10.89" ry="14.63" transform="translate(-12.11 18.75) rotate(-5.55)"/><circle class="cls-3" cx="253.57" cy="162.86" r="18.68" transform="translate(-14.57 25.3) rotate(-5.55)"/><circle class="cls-3" cx="42.24" cy="183.41" r="18.68" transform="translate(-17.55 4.95) rotate(-5.55)"/><path d="M73.93,205.42c.4-1.41.85-2.73,1.24-4.07.18-.68.42-1.33.57-2s.38-1.34.54-2A46,46,0,0,0,77.8,189a40.6,40.6,0,0,0-.19-8.5,32.71,32.71,0,0,0-2.07-8,33.82,33.82,0,0,0-24.35-20.62,33.93,33.93,0,0,0-16.42.62,33.39,33.39,0,0,0-14.14,8.28,33.82,33.82,0,0,0-8.56,14,34.55,34.55,0,0,0-1.46,8.11,34.92,34.92,0,0,0,0,4.14l.18,2.24.21,2.4q0,.12,0,.23V192c0,.23,0,.75.07,1.16l.12,1.33c.1.9.21,1.81.35,2.72.28,1.82.65,3.64,1.08,5.45A74.21,74.21,0,0,0,27.54,232.5c9.51,11.58,22.55,20,36.84,25.42s29.78,8.09,45.35,9c7.8.48,15.65.52,23.5.24q2.95-.08,5.89-.27c2-.11,3.93-.22,5.89-.39,3.94-.27,7.83-.71,11.93-1.08a4.87,4.87,0,0,1,.91,9.69h-.09c-3.86.38-7.92.87-12,1.18-2,.19-4,.33-6.08.45s-4.06.26-6.09.33c-8.13.36-16.3.38-24.48,0a187.36,187.36,0,0,1-24.48-2.81c-4.06-.72-8.1-1.67-12.12-2.72s-8-2.36-11.88-3.84a107.75,107.75,0,0,1-22.4-11.47,89.51,89.51,0,0,1-18.86-17,84.78,84.78,0,0,1-17-34c-.5-2.08-.93-4.18-1.26-6.31q-.25-1.6-.42-3.23L.55,194c0-.59-.07-1.07-.09-1.83l0,.41-.2-2.36-.19-2.53a45.52,45.52,0,0,1,0-5.41,45.06,45.06,0,0,1,2-10.66,44.28,44.28,0,0,1,11.29-18.27,43.94,43.94,0,0,1,71.58,15.5,42.76,42.76,0,0,1,2.64,10.44,50.56,50.56,0,0,1,.2,10.59A48.61,48.61,0,0,1,87,195.1a33.08,33.08,0,0,1-1.38,5.17,23.59,23.59,0,0,1-5.74,9.16,3.68,3.68,0,0,1-6.08-3.66Z"/><path d="M221.62,195.65a23.59,23.59,0,0,1-7.39-7.88,33.08,33.08,0,0,1-2.35-4.81,48.61,48.61,0,0,1-1.73-5,50.56,50.56,0,0,1-1.84-10.43,42.76,42.76,0,0,1,.58-10.76,44,44,0,0,1,25.8-32.54,44.06,44.06,0,0,1,56.06,19.3,45.05,45.05,0,0,1,4,10.08,45.53,45.53,0,0,1,1,5.32l.3,2.52.26,2.36-.06-.4c.13.76.19,1.23.27,1.82l.18,1.65q.14,1.64.21,3.25c.09,2.16.07,4.3,0,6.44a84.78,84.78,0,0,1-10.16,36.68,89.51,89.51,0,0,1-15.23,20.34,107.76,107.76,0,0,1-19.77,15.57c-3.55,2.2-7.21,4.19-10.92,6.06s-7.52,3.51-11.36,5A187.35,187.35,0,0,1,206,267.66c-7.94,2-16,3.55-24,4.76q-3,.48-6,.85c-2,.27-4,.52-6.05.73-4,.48-8.1.77-12,1.14h-.09a4.87,4.87,0,0,1-1-9.68c4.1-.43,8-.74,11.92-1.24,2-.21,3.91-.48,5.86-.75s3.9-.54,5.83-.87c7.76-1.23,15.45-2.79,23-4.76,15.1-3.92,29.75-9.54,42.76-17.6s24.15-18.85,31.25-32a74.21,74.21,0,0,0,8.85-32.12c.08-1.86.09-3.72,0-5.56,0-.92-.1-1.83-.18-2.73l-.14-1.33c0-.41-.12-.92-.16-1.15l0-.16c0-.08,0-.17,0-.24l-.25-2.4-.25-2.23a33,33,0,0,0-3.76-11.74,33.82,33.82,0,0,0-11.09-12.06,33.39,33.39,0,0,0-15.47-5.4,33.6,33.6,0,0,0-29.31,12.51,33.54,33.54,0,0,0-6.85,15,32.71,32.71,0,0,0-.48,8.29,40.62,40.62,0,0,0,1.45,8.37,46,46,0,0,0,3.08,7.86c.29.64.59,1.26.92,1.88s.64,1.23.95,1.86c.65,1.24,1.34,2.45,2,3.75l.16.31a3.68,3.68,0,0,1-5.26,4.77Z"/><path d="M162.56,174.52a4.48,4.48,0,0,1-4.28-2.15c-.06-.1-5.17-8.24-11.22-7.84-6,.76-9.46,9.74-9.49,9.84a4.48,4.48,0,0,1-8.43-3c.21-.59,5.27-14.38,17-15.73l.16,0c11.75-.93,19.37,11.63,19.69,12.16a4.48,4.48,0,0,1-3.41,6.75Z"/></svg>