<?xml version="1.0" encoding="utf-8"?>
<!-- Generator: Adobe Illustrator 24.0.0, SVG Export Plug-In . SVG Version: 6.00 Build 0)  -->
<svg version="1.1" id="圖層_1" xmlns="http://www.w3.org/2000/svg" xmlns:xlink="http://www.w3.org/1999/xlink" x="0px" y="0px"
	 viewBox="0 0 63 63" style="enable-background:new 0 0 63 63;" xml:space="preserve">
<style type="text/css">
	.st0{fill:#0098FF;}
	.st1{enable-background:new    ;}
	.st2{fill:#FFFFFF;}
</style>
<g id="Group_4064" transform="translate(-280 -161)">
	<g class="st1">
		<path class="st2" d="M301.1,206.7v4.3c0,0.5-0.1,0.8-0.4,1c-0.3,0.2-0.8,0.2-1.6,0.2c0-0.3-0.2-0.7-0.3-0.9c0.6,0,1.1,0,1.2,0
			c0.2,0,0.2-0.1,0.2-0.2v-4l-1.5,0.5l-0.3-1c0.5-0.2,1.1-0.4,1.8-0.5v-2.8h-1.6v-1h1.6v-2.8h0.9v2.8h1.1v1h-1.1v2.5l1.2-0.4
			l0.2,0.9L301.1,206.7z M306.1,207.7c-0.2-0.4-0.6-1.1-0.9-1.7v6.1h-0.9v-6c-0.4,1.5-1.1,3-1.7,3.9c-0.1-0.3-0.4-0.7-0.5-0.9
			c0.8-1.1,1.6-3,2-4.7h-1.4v-1h1.7V201c-0.5,0.1-1,0.2-1.5,0.2c0-0.2-0.2-0.5-0.3-0.8c1.3-0.2,2.7-0.5,3.6-0.9l0.7,0.8
			c-0.5,0.2-1,0.3-1.6,0.5v2.6h1.4v1h-1.4v0.4c0.4,0.5,1.2,1.7,1.4,2L306.1,207.7z M309.2,202.8c0,0.5,0,1,0,1.5
			c0.3,3,0.9,5.8,2.3,6.9c-0.2,0.2-0.5,0.5-0.7,0.8c-1-1-1.6-2.6-2-4.6c-0.3,1.6-1,3.2-2.1,4.7c-0.1-0.2-0.4-0.6-0.6-0.7
			c2-2.6,2.2-5.9,2.2-8.6v-3.4h0.9V202.8z M307.3,205.9c-0.1-1-0.5-2.6-0.8-3.9l0.7-0.2c0.3,1.2,0.7,2.9,0.8,3.8L307.3,205.9z
			 M311.4,202c-0.3,1.2-0.6,2.8-0.9,3.8l-0.7-0.2c0.3-1,0.6-2.6,0.7-3.8L311.4,202z"/>
		<path class="st2" d="M324.6,200v12.1h-1v-0.7h-9.3v0.7h-1V200H324.6z M323.6,210.6v-9.8h-9.3v9.8H323.6z M323.2,208.3h-2v1.3
			c0,0.4-0.1,0.5-0.4,0.6c-0.3,0.1-0.8,0.1-1.7,0.1c0-0.2-0.2-0.4-0.2-0.6c0.6,0,1.1,0,1.2,0c0.2,0,0.2,0,0.2-0.2v-1.3h-5.5v-0.6
			h5.5v-0.5h0.9v0.5h2V208.3z M318.5,202.3H315v-0.7h3.5V201h0.9v0.7h3.6v0.7h-3.6v0.6h3.1v2.8h-1.1c0.6,0.4,1.2,1,1.5,1.4l-0.6,0.4
			c-0.1-0.2-0.3-0.4-0.6-0.6c-2.4,0.1-4.9,0.2-6.7,0.2l0-0.6c0.9,0,2.2,0,3.5,0v-0.7h-3v-2.8h3V202.3z M317,208.3
			c0.5,0.4,1,0.9,1.2,1.3l-0.7,0.4c-0.2-0.4-0.7-0.9-1.2-1.3L317,208.3z M316.4,204h2.1v-0.6h-2.1V204z M318.5,205.2v-0.6h-2.1v0.6
			H318.5z M319.4,203.4v0.6h2.2v-0.6H319.4z M321.6,204.6h-2.2v0.6h2.2V204.6z M321.1,206.4c-0.1-0.1-0.2-0.2-0.3-0.3l0.5-0.4h-1.9
			v0.7L321.1,206.4z"/>
	</g>
	<g id="ICON_GROUP" transform="translate(301.35 171.1)">
		<g id="Group_4331" transform="translate(0 1)">
			<path id="Path_3508" class="st2" d="M7,8.3L7,8.3c2.1,0,3.7-1.7,3.7-3.7l0,0c0-2-1.7-3.7-3.7-3.7l0,0c-2,0-3.7,1.7-3.7,3.7l0,0
				C3.3,6.7,5,8.3,7,8.3z"/>
			<path id="Path_3509" class="st2" d="M11.6,10.7h0.8c-0.7-0.8-1.8-1.3-2.9-1.3H9.3C8.6,9.7,7.8,9.9,7,9.9c-0.8,0-1.6-0.2-2.3-0.5
				H4.5c-2.1,0-3.8,1.7-3.8,3.8v0v1c0,0.9,0.7,1.6,1.6,1.6c0,0,0,0,0,0h1.1C4.9,12.7,8.1,10.7,11.6,10.7z"/>
			<path id="Path_3510" class="st2" d="M20,14.6l-6.3-7v3.7c0,0.3-0.2,0.5-0.5,0.5h-1.6c-4.7,0.1-8.4,3.9-8.4,8.6v1.3
				c2.5-2.7,5.9-4.2,9.5-4.2h0.4c0.3,0,0.5,0.2,0.5,0.5v3.7L20,14.6z"/>
		</g>
	</g>
</g>
</svg>
