<?xml version="1.0" encoding="utf-8"?>
<!-- Generator: Adobe Illustrator 21.0.0, SVG Export Plug-In . SVG Version: 6.00 Build 0)  -->
<svg version="1.1" id="圖層_1" xmlns="http://www.w3.org/2000/svg" xmlns:xlink="http://www.w3.org/1999/xlink" x="0px" y="0px"
	 viewBox="0 0 85 85" style="enable-background:new 0 0 85 85;" xml:space="preserve">
<title>未命名-6</title>
<path d="M17.5,27.8h52c0.9,0,1.6-0.7,1.6-1.6c0,0,0,0,0,0v-5.6c0-0.9-0.8-1.6-1.7-1.6c0,0,0,0,0,0h-52c-0.9,0-1.6,0.7-1.6,1.6l0,0
	v5.6C16,27.1,16.7,27.8,17.5,27.8z"/>
<path d="M17.1,7.5l16.4-1.8c3.6-0.4,6.8,2.2,7.2,5.8c0,0.2,0,0.5,0,0.7v3.3h5.7c0,0,0-0.1,0-0.1v-3.2C46.4,5.5,40.9,0,34.2,0
	c-0.4,0-0.9,0-1.3,0.1L16.5,1.9c-1.6,0.1-2.8,1.5-2.7,3c0.1,1.6,1.5,2.8,3,2.7C16.9,7.6,17,7.6,17.1,7.5z"/>
<path d="M32.8,85h21.4c3.6,0,6.6-2.8,6.9-6.4l4.4-47.8h-44L26,78.7C26.3,82.2,29.3,85,32.8,85z"/>
</svg>
