<?xml version="1.0" encoding="utf-8"?>
<!-- Generator: Adobe Illustrator 21.0.0, SVG Export Plug-In . SVG Version: 6.00 Build 0)  -->
<svg version="1.1" id="圖層_1" xmlns="http://www.w3.org/2000/svg" xmlns:xlink="http://www.w3.org/1999/xlink" x="0px" y="0px"
	 viewBox="0 0 85 85" style="enable-background:new 0 0 85 85;" xml:space="preserve">
<title>未命名-6</title>
<path d="M81.9,15.2c2.9-2.1,3.6-6.1,1.6-9c-0.4-0.6-1-1.1-1.6-1.6C81.1,4.1,80,4.2,79.3,5c-0.6,0.8-0.5,1.9,0.3,2.6
	c0.1,0.1,0.2,0.1,0.3,0.2c1.1,0.8,1.4,2.3,0.7,3.4c-0.2,0.3-0.4,0.5-0.7,0.7c-2.9,2.1-3.6,6.1-1.6,9c0.4,0.6,1,1.1,1.6,1.6
	c0.9,0.5,2,0.1,2.5-0.8c0.4-0.8,0.2-1.7-0.5-2.2c-1.1-0.8-1.5-2.3-0.7-3.4C81.4,15.7,81.6,15.4,81.9,15.2z"/>
<path d="M69.2,15.2c2.9-2.1,3.6-6.1,1.6-9c-0.4-0.6-1-1.1-1.6-1.6c-0.8-0.6-1.9-0.5-2.6,0.3c-0.6,0.8-0.5,1.9,0.3,2.6
	c0.1,0.1,0.2,0.1,0.3,0.2c1.1,0.8,1.4,2.3,0.7,3.4c-0.2,0.3-0.4,0.5-0.7,0.7c-2.9,2.1-3.6,6.1-1.5,9c0.4,0.6,0.9,1.1,1.5,1.5
	c0.9,0.5,2,0.1,2.5-0.8c0.4-0.8,0.2-1.7-0.5-2.2c-1.1-0.8-1.4-2.3-0.7-3.5C68.7,15.7,68.9,15.4,69.2,15.2z"/>
<path d="M17.9,15.2c2.9-2.1,3.6-6.1,1.6-9c-0.4-0.6-1-1.1-1.6-1.6C17.1,4.1,16,4.2,15.4,5c-0.6,0.8-0.5,1.9,0.3,2.6
	c0.1,0.1,0.2,0.1,0.3,0.2c1.1,0.8,1.4,2.3,0.7,3.4c-0.2,0.3-0.4,0.5-0.7,0.7c-2.9,2.1-3.6,6.1-1.6,9c0.4,0.6,1,1.1,1.6,1.6
	c0.9,0.5,2,0.1,2.5-0.8c0.4-0.8,0.2-1.7-0.5-2.2c-1.1-0.8-1.5-2.3-0.7-3.4C17.4,15.7,17.7,15.4,17.9,15.2z"/>
<path d="M4.8,15.2c2.9-2.1,3.6-6.1,1.6-9c-0.4-0.6-1-1.1-1.6-1.6C4,4.1,2.8,4.2,2.2,5S1.7,6.9,2.5,7.6c0.1,0.1,0.2,0.1,0.3,0.2
	c1.1,0.8,1.4,2.3,0.7,3.4c-0.2,0.3-0.4,0.5-0.7,0.7c-2.9,2.1-3.6,6.1-1.5,9c0.4,0.6,0.9,1.1,1.5,1.5c0.9,0.5,2,0.1,2.5-0.8
	c0.4-0.8,0.2-1.7-0.5-2.2c-1.1-0.8-1.4-2.3-0.7-3.5C4.3,15.7,4.5,15.4,4.8,15.2z"/>
<path d="M55,4.3c-0.2-1.2-1.3-2-2.5-2h-20c-1.2,0-2.2,0.8-2.5,2l-3.6,18.5h32.1L55,4.3z"/>
<path d="M82.5,27.8h-80c-1.4,0-2.5,1.1-2.5,2.5c0,12.3,8.9,22.3,20.2,27.6c7,3.2,14.6,4.9,22.3,4.9c7.7,0,15.3-1.6,22.3-4.9
	C76.1,52.6,85,42.6,85,30.2C85,28.9,83.9,27.8,82.5,27.8z"/>
<path d="M68,73.8l-2.2-10.9c-7.3,3.2-15.3,4.9-23.3,4.8c-8,0-16-1.6-23.3-4.8l-2.2,10.9c-0.8,4.1,1.8,8,5.8,8.8
	c0.5,0.1,1,0.2,1.5,0.2h36.2c4.1,0,7.5-3.3,7.5-7.5C68.2,74.8,68.1,74.3,68,73.8z"/>
</svg>
