<?xml version="1.0" encoding="utf-8"?>
<!-- Generator: Adobe Illustrator 21.0.0, SVG Export Plug-In . SVG Version: 6.00 Build 0)  -->
<svg version="1.1" id="圖層_1" xmlns="http://www.w3.org/2000/svg" xmlns:xlink="http://www.w3.org/1999/xlink" x="0px" y="0px"
	 viewBox="0 0 85 85" style="enable-background:new 0 0 85 85;" xml:space="preserve">
<title>未命名-6</title>
<path d="M54.7,41.3c0.8-0.8,1.7-1.4,2.7-1.9c2.9-1.7,4.3-3.4,4.3-8.6c0-8.2-3.3-14.2-9.7-17.6c-4.9-2.6-11.6-3.9-21.1-3.9
	s-16.3,1.2-21.2,3.9C3.3,16.7,0,22.6,0,30.9c0,5.2,1.4,6.9,4.3,8.6c1,0.5,1.9,1.1,2.7,1.9v24.2c0,5.6,4.6,10.2,10.2,10.2h27.3
	c5.6,0,10.2-4.6,10.2-10.2V41.3z M21.5,37.3c-1,0-1.8-0.8-1.8-1.9c0-0.5,0.2-0.9,0.5-1.3l9.3-9.3c0.7-0.7,1.9-0.8,2.6-0.1
	c0.7,0.7,0.8,1.9,0.1,2.6c0,0-0.1,0.1-0.1,0.1l-9.3,9.3C22.5,37.1,22,37.3,21.5,37.3L21.5,37.3z M41.5,32.1l-9.3,9.3
	c-0.7,0.7-1.9,0.7-2.6,0c-0.7-0.7-0.7-1.9,0-2.6l9.3-9.3c0.7-0.7,1.9-0.7,2.6,0C42.2,30.2,42.2,31.4,41.5,32.1L41.5,32.1z"/>
<path d="M53.1,9.3l0.8,0.4c7.7,4.2,11.8,11.5,11.8,21.1c0,6.1-2.4,9.8-7,12.4v22.3c0,3.8-1.6,7.5-4.4,10.2h13.5
	c5.6,0,10.1-4.6,10.2-10.2V41.3c0.8-0.8,1.7-1.4,2.7-1.9c3-1.7,4.3-3.4,4.3-8.6c0-8.2-3.3-14.2-9.7-17.6
	C70.4,10.6,62.7,9.3,53.1,9.3z"/>
</svg>
