<?xml version="1.0" encoding="utf-8"?>
<!-- Generator: Adobe Illustrator 21.0.0, SVG Export Plug-In . SVG Version: 6.00 Build 0)  -->
<svg version="1.1" id="圖層_1" xmlns="http://www.w3.org/2000/svg" xmlns:xlink="http://www.w3.org/1999/xlink" x="0px" y="0px"
	 viewBox="0 0 85 85" style="enable-background:new 0 0 85 85;" xml:space="preserve">
<title>未命名-6</title>
<path d="M25.5,59.5H51c7,0,12.8-5.7,12.8-12.7c0,0,0,0,0,0H68c9.4,0,17-7.6,17-17s-7.6-17-17-17H16c-1.8,0-3.2,1.4-3.2,3.1
	c0,0,0,0.1,0,0.1v30.8C12.8,53.8,18.5,59.5,25.5,59.5z M68,21.3c4.7-0.2,8.7,3.4,8.9,8.1c0.2,4.7-3.4,8.7-8.1,8.9
	c-0.3,0-0.6,0-0.8,0h-4.2v-17L68,21.3z M74.3,72.3H6.4c-6.3,0-8.1-8.5-4.8-8.5h77.5C82.5,63.8,80.7,72.3,74.3,72.3L74.3,72.3z"/>
</svg>
