<svg id="图层_1" data-name="图层 1" xmlns="http://www.w3.org/2000/svg" viewBox="0 0 60 60"><defs><style>.cls-1{fill:#00b900;}.cls-2{fill:#fff;}</style></defs><title>connect</title><rect class="cls-1" width="60" height="60"/><g id="FULL_COLOR_ICON" data-name="FULL COLOR ICON"><g id="TYPE_A" data-name="TYPE A"><path class="cls-2" d="M51.75,27.36c0-9.78-9.8-17.73-21.85-17.73s-21.85,8-21.85,17.73c0,8.76,7.77,16.1,18.27,17.49.71.15,1.68.47,1.92,1.08a4.49,4.49,0,0,1,.07,2L28,49.77c-.1.55-.44,2.16,1.89,1.18s12.58-7.41,17.16-12.68h0c3.17-3.47,4.68-7,4.68-10.91"/><path class="cls-1" d="M25.46,22.64H23.93a.43.43,0,0,0-.43.42v9.52a.43.43,0,0,0,.43.42h1.53a.43.43,0,0,0,.43-.42V23.06a.43.43,0,0,0-.43-.42"/><path class="cls-1" d="M36,22.64H34.48a.43.43,0,0,0-.43.42v5.66l-4.36-5.89,0,0h0l0,0h0l0,0h0l0,0H27.8a.43.43,0,0,0-.43.42v9.52a.43.43,0,0,0,.43.42h1.53a.43.43,0,0,0,.43-.42V26.93l4.37,5.9a.42.42,0,0,0,.11.1h0l0,0H36a.42.42,0,0,0,.43-.42V23.06a.43.43,0,0,0-.43-.42"/><path class="cls-1" d="M21.77,30.62H17.61V23.06a.43.43,0,0,0-.43-.43H15.65a.43.43,0,0,0-.43.43v9.52h0a.42.42,0,0,0,.12.29h0a.42.42,0,0,0,.29.12h6.12a.43.43,0,0,0,.42-.43V31a.43.43,0,0,0-.42-.43"/><path class="cls-1" d="M44.47,25a.42.42,0,0,0,.42-.43V23.06a.43.43,0,0,0-.42-.43H38.35a.42.42,0,0,0-.3.12h0a.42.42,0,0,0-.12.29h0v9.52h0a.42.42,0,0,0,.12.29h0a.42.42,0,0,0,.29.12h6.12a.43.43,0,0,0,.42-.43V31a.43.43,0,0,0-.42-.43H40.31V29h4.16a.42.42,0,0,0,.42-.43V27.06a.43.43,0,0,0-.42-.43H40.31V25Z"/></g></g></svg>