<?xml version="1.0" encoding="utf-8"?>
<!-- Generator: Adobe Illustrator 21.0.0, SVG Export Plug-In . SVG Version: 6.00 Build 0)  -->
<svg version="1.1" id="圖層_1" xmlns="http://www.w3.org/2000/svg" xmlns:xlink="http://www.w3.org/1999/xlink" x="0px" y="0px"
	 viewBox="0 0 85 85" style="enable-background:new 0 0 85 85;" xml:space="preserve">
<title>未命名-6</title>
<g id="Layer_2">
	<path d="M57.9,27.8c0.9,1.2,1.4,2.7,1.5,4.1c1.6,0.5,3.2,1.4,4.4,2.6c1,0.8,1.6,2,1.8,3.2c0.3,0,0.7-0.1,1-0.1
		c2.4-0.1,4.7,1.3,5.7,3.5c1.5,2.9,0.5,5.8-1.1,8c1.3,1,2.4,2.2,3.1,3.7c2.7,5.4,2,6.8-2.5,11.4l-0.2,0.2c1.5,1.9,4,2,7.8,2
		c1.6,0,3.1-0.8,4-2.1c1.4-1.9,2.6-5.7,0.4-13.6C81.1,41.3,70.8,31.3,57.9,27.8z"/>
	<path d="M71.6,54.2c-1.1-2.2-3.2-3.7-5.7-3.9h-0.2l0.2-0.1c0.9-0.7,5.5-4.2,3.8-7.7c-0.5-1.1-1.7-1.8-2.9-1.8
		c-1.7,0.1-3.3,0.7-4.8,1.6l-0.2,0.1l0.1-0.2c0.4-0.8,1.6-4-0.1-5.4c-1.4-1.4-3.2-2.2-5.2-2.3h-0.1c-0.2,0-0.4,0-0.7,0.1
		c0.1-0.2,0.1-0.4,0.2-0.6c1.3-5.4-4.2-7.2-6-7.2c-1,0-2,0.2-2.9,0.4c-1.2,0.2-2.3,0.5-2.8,0.6l-0.2,0c0,0,0-0.1,0-0.1
		c-0.1-0.8-0.2-1.6-0.5-2.4c-0.2-0.5-0.4-1-0.7-1.5c-1.4-2.5-3.9-4.3-6.7-4.8c-0.8-0.2-1.7-0.3-2.5-0.3c-6.5,0-11.2,6.2-11.2,6.2
		c-1.7-1.2-3.8-1.8-5.9-1.9c-5.5,0-7.9,5.8-7.9,5.8c-0.6-0.2-1.2-0.3-1.9-0.3c-5.3,0-2.1,8.1-2.1,8.1c-9.1,3.7-2.9,9-2.1,9.7
		c4.5-8.5,12.7-16,27.5-16.4c0.2,0,0.5,0,0.8-0.1c0.5,0,1-0.1,1.2-0.1c17.3,0,28.6,17.9,34,29.4c0.2,0.4,0.3,0.7,0.5,1.1
		c0.3,0.5,0.6,1,0.9,1.5l1.1,0.3l0.7,0.2c0.3-0.3,0.5-0.5,0.7-0.7C73.5,58.1,73.4,57.9,71.6,54.2z"/>
	<path d="M64.6,62.5c-0.2-0.3-0.4-0.7-0.6-1l-0.4-0.8c-5-10.8-15.5-27.8-31.3-27.8c-0.2,0-0.6,0-1,0.1l-1,0.1
		C17.6,33.3,10.2,39.7,6,47.1c-0.3,0.5-0.5,0.9-0.8,1.4C5,49,4.8,49.5,4.6,50c-2.2,5-3.5,10.4-3.9,15.8h66.7
		c-0.4-0.4-0.9-0.9-1.3-1.4C65.5,63.8,65,63.2,64.6,62.5z M32.4,45.4c0-1.6,1.3-2.9,2.9-2.9s2.9,1.3,2.9,2.9c0,1.6-1.3,2.9-2.9,2.9
		h0C33.7,48.3,32.4,47,32.4,45.4z M42.2,57.2c0,0.5-0.1,1-0.4,1.5c-0.8,1.4-2.6,1.8-4,1c-0.8-0.5-1.3-1.3-1.4-2.3c0-0.1,0-0.2,0-0.2
		c0-1.6,1.3-2.9,2.9-2.9c1,0,1.9,0.5,2.4,1.3C42,56,42.2,56.6,42.2,57.2C42.2,57.2,42.2,57.2,42.2,57.2z M45.2,52.3
		c-1.6,0-2.9-1.3-2.9-2.9s1.3-2.9,2.9-2.9c1.6,0,2.9,1.3,2.9,2.9v0C48.1,51,46.8,52.3,45.2,52.3C45.1,52.3,45.1,52.3,45.2,52.3
		L45.2,52.3z"/>
</g>
</svg>
