<?xml version="1.0" encoding="utf-8"?>
<!-- Generator: Adobe Illustrator 21.0.0, SVG Export Plug-In . SVG Version: 6.00 Build 0)  -->
<svg version="1.1" id="圖層_1" xmlns="http://www.w3.org/2000/svg" xmlns:xlink="http://www.w3.org/1999/xlink" x="0px" y="0px"
	 viewBox="0 0 85 85" style="enable-background:new 0 0 85 85;" xml:space="preserve">
<title>未命名-6</title>
<path d="M42.5,7.7C19,8,0,19.2,0,33v3.7c0,0,0.2,12.1,0.2,17.5c0,13.5,20.1,22.8,42.3,23.2c22.2-0.3,42.3-9.7,42.3-23.2
	c0-5.4,0.2-17.5,0.2-17.5V33C85,19.2,66.1,8,42.5,7.7z M66.8,31.6l4.4-3.2c0.8-0.6,1.9-0.4,2.5,0.4c0.6,0.8,0.4,1.9-0.4,2.5l0,0
	l-4.4,3.2c-0.8,0.6-1.9,0.4-2.5-0.4C65.8,33.3,65.9,32.2,66.8,31.6z M52.9,17l4.4-3.2c0.8-0.6,1.9-0.4,2.5,0.4s0.4,1.9-0.4,2.5
	L55,20c-0.3,0.2-0.6,0.3-1,0.3c-1,0-1.8-0.8-1.8-1.8C52.2,18,52.5,17.4,52.9,17L52.9,17z M42.6,21.9c8.5,0.2,15.3,3.2,15.3,7
	s-6.8,6.8-15.3,7c-8.5-0.2-15.3-3.2-15.3-7S34.1,22.1,42.6,21.9z M53.7,43.2l-4.4,3.2c-0.3,0.2-0.6,0.3-1,0.3c-1,0-1.8-0.8-1.8-1.8
	c0-0.6,0.3-1.1,0.7-1.5l4.4-3.2c0.8-0.6,1.9-0.4,2.5,0.4C54.8,41.5,54.6,42.6,53.7,43.2L53.7,43.2z M25.6,17l4.4-3.2
	c0.8-0.6,1.9-0.4,2.5,0.4c0.6,0.8,0.4,1.9-0.4,2.5l0,0L27.7,20c-0.3,0.2-0.6,0.3-1,0.3c-1,0-1.8-0.8-1.8-1.8
	C24.9,18,25.2,17.4,25.6,17L25.6,17z M21.2,39l4.4-3.2c0.8-0.6,1.9-0.4,2.5,0.4c0.6,0.8,0.4,1.9-0.4,2.5l-4.4,3.2
	c-0.8,0.6-1.9,0.4-2.5-0.4C20.2,40.7,20.4,39.6,21.2,39L21.2,39z M12.1,33.1l4.4-3.1c0.8-0.6,1.9-0.4,2.5,0.4
	c0.6,0.8,0.4,1.9-0.4,2.5l-4.4,3.2c-0.3,0.2-0.6,0.3-1,0.3c-1,0-1.8-0.8-1.8-1.8C11.4,34.1,11.7,33.5,12.1,33.1L12.1,33.1z
	 M78.8,54.8c0,10.2-17.8,16.8-36.3,17.3C24.1,71.6,6.3,64.9,6.3,54.8l-0.1-8.9l1.1,1.1c2.2,1.9,4.6,3.5,7.2,4.8v3
	c0,2,1.6,3.6,3.6,3.6c0,0,0,0,0,0c1,0,2-0.4,2.7-1.2v5.7c0,2,1.6,3.7,3.7,3.7c2,0,3.7-1.6,3.7-3.7v-6.3l0.8,0.2v1.6
	c0,2,1.6,3.6,3.6,3.7c1.5,0,2.9-0.9,3.4-2.3v7.1c0,2,1.6,3.7,3.7,3.7c2,0,3.7-1.6,3.7-3.7v-8.6c1.9,0,3.8-0.2,5.6-0.4v0.5
	c0.1,2,1.8,3.5,3.8,3.4c1.9-0.1,3.3-1.6,3.4-3.4v-1.6c2.4-0.5,4.9-1.2,7.2-1.9c0.1,2,1.8,3.5,3.8,3.4c1.8-0.1,3.3-1.6,3.4-3.4v-3
	c2.6-1.3,5-2.9,7.2-4.8l1.1-1.1L78.8,54.8z"/>
</svg>
