<?xml version="1.0" encoding="utf-8"?>
<!-- Generator: Adobe Illustrator 21.0.0, SVG Export Plug-In . SVG Version: 6.00 Build 0)  -->
<svg version="1.1" id="圖層_1" xmlns="http://www.w3.org/2000/svg" xmlns:xlink="http://www.w3.org/1999/xlink" x="0px" y="0px"
	 viewBox="0 0 85 85" style="enable-background:new 0 0 85 85;" xml:space="preserve">
<title>未命名-6</title>
<g id="Layer_5">
	<path d="M79.2,54.3L79.2,54.3c-0.7,0-1.3,0-2-0.1c-0.3-0.1-0.5,0-0.7,0.2c-2.3,4.4-6.2,6.9-10.9,6.9H19.4c-4.6,0-8.6-2.7-10.9-7
		c-0.1-0.2-0.3-0.2-0.5-0.2c-0.7,0.1-1.4,0.1-2.1,0.1c-0.4,0-0.8,0-1.2-0.1c-0.4,0-1,0-1,0.3c1.8,7.1,7,11.7,13.5,11.7H68
		c6.5,0,11.9-4.7,13.6-11.8c0.1-0.4-0.3-0.4-0.5-0.3C80.4,54.3,79.8,54.3,79.2,54.3z"/>
	<path d="M15.5,25.1c-0.2-0.4-0.6-0.2-0.8-0.1C5.7,29.7,0,36.7,0,44.5c0,10,9.3,6,23,2.7c0.3-0.1,0.5-0.4,0.4-0.6v-0.1L15.5,25.1z"
		/>
	<path d="M45.9,19.3v25c0,0.2,0.1,0.4,0.3,0.4c0,0,0,0,0.1,0c5,0.4,9.9,1.1,14.8,2.3c0.2,0,0.6,0.1,0.8-0.2l9.5-20.6
		c0.1-0.3,0-0.6-0.3-0.7c-7.6-4-16-6.2-24.6-6.6C46.3,18.8,45.9,18.8,45.9,19.3z"/>
	<path d="M42.8,19.2c0-0.4-0.5-0.5-0.6-0.5c-8,0-16,1.5-23.4,4.4c-0.3,0.1-0.5,0.4-0.4,0.8L26.5,46c0.1,0.3,0.4,0.4,0.7,0.2
		c5-1.1,10-1.7,15.1-1.8c0.1,0,0.4,0,0.4-0.3L42.8,19.2L42.8,19.2z"/>
	<path d="M74,27.9c-2.6,4.8-9,19.7-9,19.7c-0.1,0.2,0.1,0.3,0.3,0.3C77.1,51,85,53.7,85,44.5c0-6.4-3.9-12.3-10.3-16.8
		C74.5,27.6,74.1,27.7,74,27.9z"/>
</g>
</svg>
