<?xml version="1.0" encoding="utf-8"?>
<!-- Generator: Adobe Illustrator 21.0.0, SVG Export Plug-In . SVG Version: 6.00 Build 0)  -->
<svg version="1.1" id="圖層_1" xmlns="http://www.w3.org/2000/svg" xmlns:xlink="http://www.w3.org/1999/xlink" x="0px" y="0px"
	 viewBox="0 0 85 85" style="enable-background:new 0 0 85 85;" xml:space="preserve">
<title>未命名-6</title>
<path d="M17.8,18.6V7.5c0-1.1-0.9-2-2-2s-2,0.9-2,2v11.1H11V7.5c0-1.1-0.9-2-2-2s-2,0.9-2,2v11.1H4V7.5c0-1.1-0.9-2-2-2s-2,0.9-2,2
	v12.4l0,0v6.9c0.4,1.8,1.2,3.4,2.5,4.8c1,1.1,2.3,1.8,3.7,2.2v45.3c0.1,1.5,1.4,2.6,2.8,2.5c1.3-0.1,2.4-1.2,2.5-2.5V33.8h0.3
	c4.7,0,5.8-6.3,6-7S17.8,18.6,17.8,18.6z"/>
<path d="M82.3,3.3h-0.5c-1.1,0-2.1,0.7-2.5,1.7c-0.1,0.1-0.1,0.2-0.2,0.2c-0.4,0.6-4.6,32.2-4.9,34.2s1.9,3,2.4,3.2
	c0.8,0.1,1.6,0.2,2.5,0.1v35.8c0,1.5,1.2,2.7,2.7,2.7h0.5c1.5,0,2.7-1.2,2.7-2.7V6C85,4.5,83.8,3.3,82.3,3.3z"/>
<path d="M74,44.8c-0.5-0.2-2.7-1.2-2.4-3.2c0.1-0.9,0.9-6.9,1.8-13.6C64.2,12.3,44,7.2,28.3,16.5c-2.9,1.7-5.5,3.9-7.8,6.4
	c0.1,1.9,0.1,3.8-0.1,5.6c-0.2,0.7-1.3,7-6,7h-0.3v20.3c6.1,17.1,25,26,42.1,19.9c9.6-3.4,17.1-11.2,20.3-20.9v-9.9
	C75.7,45,74.8,44.9,74,44.8z M45.3,67.6c-12.6,0-22.9-10.2-22.9-22.9s10.2-22.9,22.9-22.9s22.9,10.2,22.9,22.9S57.9,67.6,45.3,67.6
	C45.3,67.6,45.3,67.6,45.3,67.6z"/>
<circle cx="45.3" cy="44.7" r="18.5"/>
</svg>
