<svg id="图层_1" data-name="图层 1" xmlns="http://www.w3.org/2000/svg" viewBox="0 0 60 60"><defs><style>.cls-1{fill:#1877f2;}.cls-2{fill:#fff;}</style></defs><title>connect</title><rect class="cls-1" width="60" height="60"/><path class="cls-1" d="M60,30A30,30,0,1,0,25.31,59.64v-21H17.7V30h7.62V23.39c0-7.52,4.48-11.67,11.33-11.67a46.13,46.13,0,0,1,6.72.59v7.38H39.58c-3.73,0-4.89,2.31-4.89,4.68V30H43l-1.33,8.67h-7v21A30,30,0,0,0,60,30Z"/><path class="cls-2" d="M41.68,38.67,43,30H34.69V24.37c0-2.37,1.16-4.68,4.89-4.68h3.78V12.3a46.13,46.13,0,0,0-6.72-.59c-6.85,0-11.33,4.15-11.33,11.67V30H17.7v8.67h7.62v21a30.32,30.32,0,0,0,9.38,0v-21Z"/></svg>